<svg width="61" height="90" viewBox="0 0 61 90" fill="none" xmlns="http://www.w3.org/2000/svg">
<path d="M58.2883 33.7047C58.1522 32.4395 58.3117 30.6288 57.9906 29.6256C57.9906 29.6152 57.9853 29.5945 57.9789 29.5593C57.2846 32.3381 58.1511 35.4108 56.7179 37.9846C55.5123 39.608 55.5484 41.5502 55.6707 43.4603C55.7462 46.6574 55.9896 49.8606 55.9758 53.0555C55.5803 55.533 53.1626 53.0462 51.8177 53.6022C50.5142 54.3269 49.4244 53.421 49.1257 52.13C48.3761 53.6477 48.9779 54.916 50.3685 55.5724C50.9225 55.9285 51.049 57.3324 50.091 57.1584C47.6382 56.7536 45.7936 58.3221 43.5279 58.7321C45.0419 59.5469 49.3659 57.0756 49.1129 60.0293C48.9843 61.5699 46.8121 60.7085 46.3794 62.1507C48.0444 63.5494 47.1864 66.2153 45.2099 66.8675C38.8382 67.9877 32.6791 64.0173 27.2324 61.2593C23.1082 58.6886 20.9382 54.2037 20.1026 49.6473C19.7273 48.6793 23.6366 50.546 24.2288 49.6142C16.8928 48.8149 14.3177 29.7684 24.1629 36.824C25.0868 37.8749 25.5557 39.2156 25.8576 40.5511C25.8576 41.7293 28.387 38.8574 31.2172 40.3969C34.9575 41.6517 37.0722 38.0302 39.811 36.3354C42.25 34.6478 44.9813 33.3071 47.1619 31.311C48.1316 30.4642 44.5879 31.1475 44.0723 29.8316C42.7837 28.4205 40.787 27.586 39.0753 28.7963C37.7218 29.8544 35.5359 31.3721 35.318 32.9779C38.415 29.3595 40.315 28.7331 44.2764 31.6403C44.7974 31.7987 44.6836 32.0606 44.4125 32.306C43.6885 32.9986 42.7029 32.6166 41.8608 32.4095C39.642 31.456 36.8564 32.1124 36.5853 34.6944C37.2009 33.5338 40.5744 32.0937 40.8795 33.6912C37.9451 35.8043 35.6284 40.2084 31.4096 39.1835C29.9573 38.7694 28.0223 38.2631 27.2122 37.0156C29.3385 37.9556 32.4505 38.6721 34.1527 36.7112C26.3829 40.3751 25.426 27.5643 19.6475 31.369C21.9664 31.1123 25.8236 35.2369 22.146 34.2244C19.3041 33.1891 17.6583 37.1067 15.0513 35.6283C12.6007 33.7119 16.5324 35.5071 17.0374 33.8776C17.3181 33.5235 17.065 33.2564 16.6833 33.4489C14.0147 34.1571 13.6511 33.3806 11.8405 32.1776C11.8182 32.5348 12.5178 33.7461 11.7799 33.6125C11.1622 33.6477 9.26012 32.0596 10.0426 33.2936C11.4705 34.8973 14.9769 36.3933 13.9765 38.8843C12.8473 37.3479 12.7293 37.2433 11.882 37.0715C12.3838 38.0312 12.8537 38.9702 12.7995 40.0625C11.7044 39.0168 11.5035 37.0549 9.645 36.6532C8.90821 36.3902 7.90561 35.5682 8.0736 34.7897C9.22823 35.5423 9.99373 35.9554 11.0123 35.6407C9.66095 34.5205 7.74507 33.8827 7.51436 31.6341C7.68553 30.8483 5.73776 27.8428 6.67975 27.9629C7.3608 28.3708 7.88013 28.9911 8.15334 29.7229C11.4939 34.0536 10.4817 30.2685 8.49675 28.1016C7.86628 26.9731 3.98136 24.2254 4.23759 26.8862C5.05944 29.3854 6.22896 32.0358 5.33268 34.6789C3.92502 37.8262 3.27647 33.0224 3.05957 31.78C2.75125 30.9259 2.95326 29.6152 2.40996 28.9982C2.01552 29.4806 2.19732 30.3958 2.16224 31.0243C2.9692 35.5268 1.84328 42.2811 5.39435 46.2339C5.88555 49.0375 7.26132 51.5222 10.065 52.8599C11.513 55.4481 10.5519 59.2622 10.5317 62.2366C10.0565 68.2641 6.27574 73.0276 2.93305 77.8531C-5.43428 94.4045 6.38312 76.0051 22.5681 81.7707C29.8872 84.1612 36.4747 88.4919 44.1786 89.7715C50.8353 91.5957 33.9719 81.954 33.2734 80.0563C32.274 76.7433 34.1112 72.8588 34.3664 69.4061C34.5716 68.3335 34.3356 68.288 35.7485 68.3501C38.8765 68.5157 42.0501 68.6938 45.1472 68.1192C50.2346 67.263 46.6016 62.658 49.115 61.5119C50.4876 61.2334 49.9294 59.7363 50.0198 58.8201C50.1761 58.3956 50.764 58.496 51.1404 58.2952C52.6289 57.6367 50.6598 55.0661 52.8979 55.0557C54.7797 55.3301 57.2719 55.3943 57.0007 52.8288C56.9848 49.2404 56.6339 45.6635 56.6074 42.0751C56.5531 39.1307 58.873 36.7485 58.2883 33.7047ZM9.92887 48.9226C7.5824 47.1067 4.75856 45.3063 5.25082 41.9726C6.20769 43.4955 6.5745 45.0216 8.15121 46.0579C8.69663 46.2681 11.2494 49.5189 9.92887 48.9226ZM10.773 45.5351C8.34365 44.9605 7.3485 42.9199 6.8084 40.723C6.75418 39.4123 3.21161 35.6293 6.59576 37.8386C6.8084 38.0074 6.90515 38.3076 7.21985 38.3449C7.36232 37.9453 6.47562 36.6884 7.33999 37.1326C10.5466 38.789 8.50951 42.5834 10.7933 44.8042C11.1484 45.0443 11.5566 45.7825 10.773 45.5351ZM32.6908 68.1544C31.8604 71.6496 31.3926 75.2059 30.7675 78.7373C29.3417 79.9589 26.621 77.7889 25.3452 76.8251C23.1933 75.298 16.4686 66.3312 19.6603 74.3403C19.7475 75.1686 21.3465 77.4607 19.9218 77.5757C14.6271 74.8062 14.1072 67.0156 16.3771 62.1217C17.5296 60.0283 19.9431 60.4279 21.5634 61.7593C24.7434 64.654 29.4385 65.9099 32.6908 68.1544ZM36.5757 34.7027C36.5863 34.7027 36.5948 34.7027 36.5863 34.6872C36.5818 34.6924 36.5775 34.698 36.5736 34.7037L36.5757 34.7027ZM10.3456 31.7831H10.3584C10.3584 31.7831 10.3488 31.7759 10.3456 31.7831Z" fill="white"/>
<path d="M60.6975 20.5439C59.5067 17.8386 57.8492 14.4273 54.3608 14.36C53.9589 14.4025 53.7931 14.1333 53.8037 13.7751C53.96 10.4621 40.2214 18.8708 38.1195 19.3429C36.3546 19.9983 41.2357 16.0227 41.6057 15.4678C45.4757 12.2221 48.7791 7.03834 53.9026 5.82082C54.4278 6.09104 54.6585 5.71729 54.6373 5.21621C55.4676 2.19208 52.1653 0.815131 49.6073 0.562517C47.0471 0.554234 46.0785 3.6529 44.6443 5.28247C44.2477 5.95852 43.8235 6.6118 43.0995 5.84257C40.5478 4.20161 38.0344 2.44988 34.8672 2.17863C37.0946 3.24809 40.3139 4.20161 41.1591 6.4741C40.4542 6.16351 39.9269 5.39117 39.1061 5.4388C39.4708 5.80944 40.2948 8.00117 39.4633 7.23608C38.2364 5.2804 36.1132 4.11775 34.0081 3.25431C30.2944 1.80488 28.3434 6.55071 20.967 5.78562C25.5631 7.95252 31.3118 2.80602 35.7624 6.31984C35.6327 5.37668 34.393 5.2276 33.9369 4.46975C36.665 4.82383 37.5177 7.45453 39.1369 9.23215C40.4521 10.8762 39.1869 9.76533 38.2779 9.4858C38.7106 10.3927 39.9652 11.3493 39.4952 12.3008C38.9955 12.9147 36.6842 8.48984 35.1978 8.11816C32.2411 6.05791 28.5752 6.90272 25.5408 8.33454C22.3023 9.8523 19.3498 6.00614 16.1603 7.58602C13.6192 8.25172 12.6517 11.4591 10.2978 11.983C4.52572 11.7686 12.7198 9.60175 13.498 7.79101C14.3486 6.73603 15.6074 6.30017 16.6568 5.5268C15.6999 5.33734 14.9705 6.04445 14.0945 6.09829C14.8557 4.52255 17.0204 3.93657 18.7055 3.76471C20.6193 3.60113 22.5171 3.99455 24.4277 4.05253C35.4466 2.57204 24.7062 0.00552319 20.4396 1.4829C21.9121 1.6765 23.2677 1.85975 24.4096 2.67143C19.6507 1.99227 14.1136 2.62277 11.9043 7.51251C11.3663 8.88739 9.55144 8.58716 8.80401 9.79018C7.45907 11.4953 6.41927 13.4003 5.23487 15.2048C4.4311 17.2454 0.852384 22.6424 3.69111 25.1127C4.41621 23.744 5.54532 22.6714 7.33255 23.3723C10.4158 25.2597 7.80674 20.7737 5.9823 21.6641C1.83584 23.6187 6.6032 20.0366 7.35488 19.1793C6.23108 19.3481 5.4709 20.3182 4.46299 20.605C5.08071 17.381 6.97319 15.7918 9.61311 13.8372C11.4599 11.9861 12.3572 17.3272 14.17 14.507C15.2034 12.3049 17.9422 11.7686 19.638 10.6422C18.0857 10.5573 16.6057 11.2551 15.3416 12.071C15.2098 12.1548 15.0822 12.3287 14.8483 12.1124C16.8683 9.10998 19.1383 8.54264 22.5267 9.77051C26.5668 10.3658 27.293 6.93274 31.8743 10.2778C32.8184 10.9321 38.1078 15.0899 36.0324 15.7463C32.9013 16.5745 30.7398 10.6878 27.4471 12.5027C24.8232 15.2835 22.8477 16.999 18.7587 15.7173C14.7515 15.5744 15.6988 18.2776 10.318 16.5062C9.36113 16.7381 8.18417 17.0632 7.61962 17.8521C9.72155 17.6388 11.9011 17.3934 13.3194 19.3626C14.473 21.0377 17.0076 21.5699 18.4015 19.7539C17.5828 20.019 15.3799 20.2716 15.4575 19.2922C16.2095 19.1466 16.8765 18.728 17.3234 18.1213C18.2962 16.8199 19.9814 17.9919 21.2274 18.2424C24.7445 19.5303 25.5206 14.2865 28.5879 14.2679C29.8 14.3838 31.079 14.8891 31.8838 15.8063C30.389 15.6593 28.7644 14.9781 27.4099 16.0455C26.519 16.9669 30.3741 15.8602 30.5368 17.0694C28.0425 17.2558 24.854 17.3614 23.0466 19.1152C25.56 18.0488 27.3451 20.6826 29.801 20.1194C23.2092 18.1968 29.868 16.795 32.2358 18.8439C37.2328 17.3614 40.9306 12.1962 44.0074 8.15647C46.254 5.83118 48.0646 0.322326 51.9176 3.24085C52.9808 3.74401 46.1136 9.16279 45.397 10.4165C42.3563 13.4634 39.2922 16.5424 35.6731 18.9474C34.3026 20.0583 32.3006 20.5201 30.9631 21.3286C34.9044 22.1476 38.6181 19.8678 42.2245 18.642C47.0492 17.3489 54.2524 12.5845 58.0193 17.8459C59.6396 19.8264 60.4061 22.8153 59.6981 25.2783C59.5194 25.5465 59.7608 25.7649 60.0372 25.5703C61.0451 25.2907 61.1079 21.3245 60.6975 20.5439ZM24.4096 2.67143C24.4266 2.67143 24.3575 2.70974 24.3585 2.71181L24.4096 2.67143ZM37.6995 14.2679C35.2914 12.1973 33.536 8.78076 29.9063 7.86244C31.8892 7.25679 33.5584 7.63985 35.0096 8.92052C35.9102 10.05 39.5856 13.0617 37.6995 14.271V14.2679ZM39.7749 10.2105C39.7153 10.1857 39.7058 10.1463 39.7462 10.0956C39.7876 10.1308 39.8259 10.1774 39.7749 10.2136V10.2105ZM35.7794 6.33226L35.7624 6.31984C35.7624 6.33123 35.756 6.34262 35.7517 6.35401L35.7794 6.33226ZM27.159 16.4669C27.159 16.4472 27.159 16.442 27.1377 16.4451L27.159 16.4669ZM7.36126 19.1524C7.36184 19.1635 7.36184 19.1745 7.36126 19.1856L7.38997 19.1783L7.36126 19.1524Z" fill="white"/>
<path d="M35.4434 30.6754C34.2016 33.2201 31.3522 33.6405 28.8272 32.7605C29.127 34.1726 31.0258 34.9915 32.4165 34.6892C25.6631 39.141 26.5955 22.8764 18.3972 29.8585C17.0225 31.3845 15.18 33.2553 13.162 31.751C12.1297 31.4705 9.54719 27.5974 11.9543 28.9257C17.1947 31.4808 18.5291 22.0544 23.2326 24.1871C22.683 24.7348 21.54 24.7451 21.0871 25.6076C20.5725 26.1977 22.8084 25.9181 23.2294 26.6915C26.6678 30.0749 30.5665 34.5205 35.4434 30.6754Z" fill="white"/>
<path d="M27.764 21.839C30.6697 26.0724 36.4152 23.5784 39.5814 26.6812C35.4817 24.359 30.4262 29.5324 27.1197 25.2524C25.9374 23.3309 24.7806 21.2148 22.146 21.2955C19.0925 21.1319 18.1165 24.4987 16.2985 26.2567C13.5533 29.4806 9.52486 27.1502 9.7375 23.3164C12.7942 29.9724 16.2719 24.1902 19.454 21.3732C22.7404 18.8946 25.8438 22.1207 27.8161 24.5899C29.0919 25.9357 31.4001 26.676 33.1161 25.798C30.7749 25.1727 28.4731 24.6054 27.764 21.839Z" fill="white"/>
<path d="M53.6676 37.9463C50.1283 37.6057 46.5091 38.8688 43.1218 39.7457C44.3168 42.9365 47.8488 40.1391 50.2686 40.1836C50.6365 39.9952 52.1398 40.4155 51.3424 40.7188C49.9826 40.5656 48.7174 41.075 47.4735 41.5305C45.211 41.9446 47.8073 43.8631 48.5834 44.6116C50.1846 46.3354 56.5925 38.6255 53.6676 37.9463ZM50.8831 42.5793C50.7768 45.0806 46.7133 42.8029 47.7222 41.9519C48.5175 41.7945 50.9044 41.1061 50.8831 42.5793Z" fill="white"/>
<path d="M56.3511 20.5749C53.2796 16.9617 52.8149 21.4146 49.619 21.6641C52.1409 23.8165 54.5182 18.2786 56.1374 22.3774C54.2556 20.2033 52.6533 23.4417 50.5918 22.8164C49.3372 22.277 47.768 22.0989 46.8547 21.0232C46.355 20.3699 45.6947 20.4083 45.0026 20.5118C44.6092 20.8296 41.6907 21.2365 42.637 20.4859C43.2654 20.3108 43.8264 19.9581 44.2488 19.4723C45.8776 18.319 47.97 20.6112 49.8189 20.5076C52.0388 20.6888 53.624 14.6054 56.3511 20.5749Z" fill="white"/>
<path d="M26.8464 27.3769C32.2134 31.9126 32.9821 26.589 37.9036 27.0528C37.8313 27.3065 37.6719 27.3137 37.5422 27.3355C36.0282 27.5622 35.1563 28.817 34.1102 29.7622C31.6223 32.5534 27.6789 30.4755 26.8464 27.3769Z" fill="white"/>
<path d="M51.2701 26.6045C51.4519 27.027 51.8868 27.0342 52.1313 27.2827C48.0561 26.9027 49.9082 23.4407 43.2005 24.5122C48.8088 21.4995 49.8816 25.7111 52.3131 25.3601C53.1541 25.0371 54.028 24.5008 54.6149 25.6034C53.2785 25.0992 52.4524 26.2629 51.2701 26.6045Z" fill="white"/>
<path d="M19.3243 39.2197C19.6752 35.5113 24.4872 37.1657 23.2475 40.3368C23.1412 40.5004 23.1412 40.8234 23.4123 40.7737C24.6392 39.8678 24.2278 41.6165 23.8812 42.1755C23.1306 43.3144 21.0105 42.631 21.422 41.1785C21.4794 40.3006 22.5862 39.3409 21.9387 38.5281C20.968 37.5746 20.0324 38.6472 19.3243 39.2197Z" fill="white"/>
<path d="M21.4954 11.7252C23.0636 12.8888 24.6339 11.3649 26.2383 11.4373C24.4617 12.8164 22.7957 15.5786 20.3067 13.6767C18.9044 12.6652 17.4138 13.9697 16.0635 14.2762C16.5398 13.1663 17.2266 12.6901 18.3324 12.688C19.4966 12.4913 22.8594 14.3186 23.0211 12.688C22.4661 12.4271 21.7729 12.3101 21.4954 11.7252Z" fill="white"/>
<path d="M50.8704 28.3449C48.4835 29.345 47.1651 26.6781 44.8101 27.0156C42.9836 27.2734 46.7494 29.6473 47.382 29.8616C45.6809 30.0335 44.7155 28.8512 43.7448 27.673C43.5099 27.3127 42.15 27.057 43.0336 26.7588C47.2736 25.004 47.4575 27.5591 50.8704 28.3449Z" fill="white"/>
<path d="M46.1721 13.3775C47.8615 11.4291 50.8044 10.0863 53.1211 8.71864C54.1184 8.06122 55.0466 10.1132 54.0302 10.3078C51.2276 10.6505 48.5717 12.0337 46.1572 13.3785L46.1721 13.3775Z" fill="white"/>
<path d="M12.0765 22.4727C12.4561 22.6559 12.8325 22.8557 13.3843 22.7056C12.7315 22.1227 11.9341 21.7738 11.7459 20.9797C13.2492 22.3577 15.1481 22.2449 17.0119 22.015C16.4558 23.9987 12.6485 24.7027 12.0765 22.4727Z" fill="white"/>
<path d="M37.6549 21.8639C39.9269 22.3163 41.7386 22.4664 43.9213 22.1797C42.418 24.5619 39.4793 23.9728 37.6549 21.8639Z" fill="white"/>
<path d="M20.7766 43.7047C21.7761 44.5567 22.8616 44.3321 24.0151 44.0049C24.8423 47.5819 19.7549 44.8601 19.7974 42.7698C19.7974 42.7698 20.3992 43.4324 20.7766 43.7047Z" fill="white"/>
<path d="M56.5893 25.6231C54.8648 23.4914 53.1743 24.6654 51.2733 23.9894C53.0499 23.5038 56.3245 22.8516 56.5893 25.6231Z" fill="white"/>
<path d="M7.38359 19.1752L7.53881 19.0717C7.56965 19.2756 7.3283 19.0945 7.38359 19.1752Z" fill="white"/>
<path d="M35.7507 6.36022C35.8144 6.35443 35.878 6.37187 35.9293 6.40917C35.9806 6.44647 36.0158 6.50096 36.0282 6.5621C35.941 6.50723 35.8379 6.31259 35.7507 6.36022Z" fill="white"/>
<path d="M56.433 22.6549C56.3384 22.5855 56.2384 22.3536 56.1374 22.3774C56.3107 22.4002 56.3256 22.5679 56.433 22.6549Z" fill="white"/>
<path d="M12.0978 22.4929L12.0223 22.5232C12.0414 22.5124 12.0818 22.4497 12.0978 22.4929Z" fill="white"/>
<path d="M35.4253 30.6961L35.4136 30.6174C35.42 30.636 35.4583 30.6816 35.4253 30.6961Z" fill="white"/>
<path d="M10.3456 31.7831L10.3977 31.719C10.3818 31.7366 10.3754 31.7862 10.3456 31.7831Z" fill="white"/>
<path d="M27.8118 21.8442L27.7491 21.8939C27.9043 21.9478 27.7055 21.8204 27.8118 21.8442Z" fill="white"/>
<path d="M11.7948 20.987L11.7267 21.0408C11.8894 21.104 11.6948 20.958 11.7948 20.987Z" fill="white"/>
<path d="M56.3139 20.5522C56.4553 20.5252 56.3426 20.6681 56.383 20.5346C56.3958 20.4911 56.3352 20.489 56.349 20.5729L56.3139 20.5522Z" fill="white"/>
<path d="M32.2379 18.8439L32.2613 18.9091C32.2496 18.8874 32.1922 18.8625 32.2379 18.8439Z" fill="white"/>
<path d="M27.1377 16.4451C27.0739 16.5704 27.2611 16.4617 27.1292 16.5176C27.0229 16.5538 27.058 16.4141 27.159 16.4669L27.1377 16.4451Z" fill="white"/>
<path d="M21.539 11.7438C21.3976 11.7728 21.5145 11.6206 21.4869 11.7573C21.4805 11.7904 21.5336 11.7894 21.5028 11.7262L21.539 11.7438Z" fill="white"/>
<path d="M36.0335 6.53726L36.0484 6.58695C36.1324 6.49377 36.0282 6.57246 36.0335 6.53726Z" fill="white"/>
<path d="M56.399 22.6331L56.4553 22.6228C56.3575 22.5244 56.4681 22.6901 56.399 22.6331Z" fill="white"/>
</svg>
